<?xml version="1.0" standalone="no"?>
<!DOCTYPE svg PUBLIC "-//W3C//DTD SVG 20010904//EN"
 "http://www.w3.org/TR/2001/REC-SVG-20010904/DTD/svg10.dtd">
<svg version="1.0" xmlns="http://www.w3.org/2000/svg"
 width="1102.000000pt" height="600.000000pt" viewBox="0 0 1102.000000 600.000000"
 preserveAspectRatio="xMidYMid meet">
<metadata>
Created by potrace 1.16, written by Peter Selinger 2001-2019
</metadata>
<g transform="translate(0.000000,600.000000) scale(0.100000,-0.100000)"
fill="#000000" stroke="none">
<path d="M5305 3704 c-166 -35 -420 -216 -480 -342 -11 -23 -28 -45 -37 -48
-22 -7 -22 -13 -3 -41 12 -18 13 -31 5 -66 -5 -25 -10 -89 -11 -143 -1 -55 -5
-106 -10 -115 -13 -25 -13 -243 0 -268 25 -45 154 -81 292 -81 95 0 105 7 143
108 29 74 49 91 84 66 14 -9 22 -31 26 -71 10 -79 22 -116 45 -130 23 -14 150
-39 243 -48 l68 -7 -33 -45 c-41 -58 -41 -58 -68 -117 -28 -62 -186 -223 -202
-207 -8 8 -3 19 16 39 39 41 33 46 -20 17 -27 -14 -62 -28 -80 -31 -18 -3 -39
-16 -48 -30 -8 -13 -22 -24 -31 -24 -8 0 -17 -7 -20 -15 -3 -8 -15 -17 -26
-21 -18 -5 -19 -7 -3 -25 28 -30 72 -39 210 -43 72 -2 142 -7 156 -11 26 -6
27 -5 44 72 16 69 24 85 69 133 28 31 77 89 109 129 44 55 62 71 75 66 45 -19
51 -16 97 42 85 107 161 291 131 320 -4 4 -21 2 -38 -5 -18 -6 -34 -10 -36 -7
-7 6 40 44 56 45 6 0 12 10 12 22 0 12 11 49 25 83 31 78 43 177 34 288 -12
150 -50 215 -163 272 -25 13 -48 36 -65 66 -42 75 -83 116 -141 143 -81 38
-125 35 -199 -14 -34 -23 -61 -45 -61 -50 0 -5 -17 -12 -37 -15 -50 -8 -183
-35 -208 -42 -19 -5 -19 -5 -2 14 9 11 17 27 17 36 0 26 63 67 142 93 68 21
70 23 33 23 -22 0 -71 -7 -110 -15z m170 -144 c3 -5 -3 -10 -14 -10 -11 0 -26
-8 -33 -19 -16 -23 -101 -71 -193 -109 -156 -66 -171 -74 -150 -83 16 -6 12
-8 -16 -8 -20 -1 -39 2 -42 6 -9 8 55 69 113 106 25 17 50 37 57 47 33 47 257
103 278 70z m-193 -291 c52 -15 98 -19 220 -19 165 -1 225 -10 269 -41 30 -21
36 -38 79 -219 13 -52 29 -109 37 -127 19 -47 17 -53 -21 -53 -27 0 -35 5 -40
24 -4 17 -16 26 -38 31 -18 4 -46 18 -61 31 -16 13 -32 24 -35 24 -4 0 -65 7
-137 15 -71 8 -133 15 -137 15 -4 0 -10 -9 -13 -20 -4 -13 -15 -20 -32 -20
-15 0 -36 -12 -52 -29 -31 -33 -71 -33 -71 0 0 10 -8 24 -18 31 -10 7 -25 26
-33 43 -8 16 -33 44 -57 62 -36 27 -53 33 -93 33 -42 0 -54 -5 -88 -35 -31
-28 -46 -35 -80 -35 -36 0 -42 3 -37 18 3 9 10 37 15 62 14 64 46 132 74 159
14 12 61 35 106 51 91 31 133 31 243 -1z m-272 -349 c99 -13 160 -28 178 -45
14 -12 7 -65 -8 -65 -4 0 -10 -20 -12 -44 -3 -24 -14 -61 -24 -82 l-19 -39
-75 1 c-97 2 -199 27 -224 57 -15 18 -17 32 -12 82 16 152 19 157 76 150 19
-2 73 -9 120 -15z m660 -88 l85 -17 3 -35 c7 -62 -17 -168 -41 -185 -42 -29
-294 -12 -329 23 -16 16 -37 214 -24 231 14 17 181 8 306 -17z"/>
<path d="M5443 2429 c-18 -5 -64 -13 -103 -17 -77 -8 -93 -24 -33 -32 37 -5
36 -6 -27 -19 -36 -7 -83 -13 -105 -13 -37 1 -38 0 -15 -10 14 -5 61 -13 105
-17 80 -6 80 -6 48 -21 -41 -18 -33 -31 15 -24 53 8 120 50 144 90 14 24 27
34 44 34 29 0 31 15 5 30 -23 12 -34 12 -78 -1z"/>
<path d="M5505 1895 c-38 -19 -95 -39 -125 -46 -30 -7 -66 -18 -80 -25 -45
-22 -157 13 -175 54 -13 28 -18 28 -69 -7 -23 -16 -69 -42 -103 -59 -73 -35
-137 -82 -126 -93 18 -17 190 -79 289 -105 97 -24 108 -25 116 -10 13 23 38
20 38 -4 0 -16 7 -20 33 -21 268 -9 370 -2 532 40 105 27 135 40 135 58 0 22
-36 86 -62 109 -32 30 -133 79 -193 93 -27 7 -64 21 -81 32 -40 24 -45 24
-129 -16z"/>
</g>
</svg>
